<svg width="23" height="23" viewBox="0 0 23 23" fill="none" xmlns="http://www.w3.org/2000/svg">
					<path
						d="M11.6669 0.666626C9.49128 0.666626 7.36454 1.31176 5.5556 2.52046C3.74666 3.72915 2.33676 5.44712 1.5042 7.45711C0.671636 9.46709 0.4538 11.6788 0.878237 13.8126C1.30267 15.9464 2.35032 17.9064 3.8887 19.4448C5.42708 20.9832 7.38709 22.0308 9.52088 22.4553C11.6547 22.8797 13.8664 22.6619 15.8764 21.8293C17.8864 20.9967 19.6043 19.5868 20.813 17.7779C22.0217 15.969 22.6669 13.8422 22.6669 11.6666C22.6669 10.2221 22.3823 8.79169 21.8295 7.45711C21.2767 6.12252 20.4665 4.90989 19.445 3.88845C18.4236 2.86701 17.211 2.05675 15.8764 1.50395C14.5418 0.951149 13.1114 0.666626 11.6669 0.666626ZM17.1669 12.7666H12.7669V17.1666C12.7669 17.4584 12.651 17.7381 12.4447 17.9444C12.2384 18.1507 11.9586 18.2666 11.6669 18.2666C11.3751 18.2666 11.0953 18.1507 10.8891 17.9444C10.6828 17.7381 10.5669 17.4584 10.5669 17.1666V12.7666H6.16687C5.87513 12.7666 5.59535 12.6507 5.38906 12.4444C5.18277 12.2381 5.06687 11.9584 5.06687 11.6666C5.06687 11.3749 5.18277 11.0951 5.38906 10.8888C5.59535 10.6825 5.87513 10.5666 6.16687 10.5666H10.5669V6.16662C10.5669 5.87489 10.6828 5.5951 10.8891 5.38881C11.0953 5.18252 11.3751 5.06662 11.6669 5.06662C11.9586 5.06662 12.2384 5.18252 12.4447 5.38881C12.651 5.5951 12.7669 5.87489 12.7669 6.16662V10.5666H17.1669C17.4586 10.5666 17.7384 10.6825 17.9447 10.8888C18.151 11.0951 18.2669 11.3749 18.2669 11.6666C18.2669 11.9584 18.151 12.2381 17.9447 12.4444C17.7384 12.6507 17.4586 12.7666 17.1669 12.7666Z"
						fill="#353945"
					/>
				</svg>