<svg width="8" height="12" viewBox="0 0 8 12" fill="none" xmlns="http://www.w3.org/2000/svg">
							<path
								d="M4.53026 0.219656L7.18756 2.87695C7.33402 3.02341 7.40724 3.21534 7.40724 3.4073C7.40724 3.59925 7.33402 3.79118 7.18756 3.93764C6.89466 4.23052 6.41979 4.23052 6.1269 3.93764L4.74994 2.56066L4.74994 11.25C4.74994 11.6642 4.41415 12 3.99994 12C3.58573 12 3.24994 11.6642 3.24994 11.25L3.24994 2.56066L1.87299 3.93764C1.58009 4.23052 1.10522 4.23052 0.812325 3.93764C0.519426 3.64472 0.519426 3.16988 0.812325 2.87695L3.46962 0.219656C3.7625 -0.0732185 4.23739 -0.0732185 4.53026 0.219656Z"
								fill="#777E91"
							/>
						</svg>