<svg width="22" height="19" viewBox="0 0 22 19" fill="none" xmlns="http://www.w3.org/2000/svg">
<path fill-rule="evenodd" clip-rule="evenodd" d="M10.2677 1.13226C10.572 1.43654 10.5973 1.91413 10.3438 2.2473L10.2677 2.33434L3.71965 8.8823L20.3333 8.8833C20.8028 8.8833 21.1833 9.26386 21.1833 9.7333C21.1833 10.1666 20.8591 10.5242 20.4399 10.5767L20.3333 10.5833L3.71865 10.5823L10.2677 17.1323C10.5996 17.4642 10.5996 18.0024 10.2677 18.3343C9.96341 18.6386 9.48582 18.664 9.15265 18.4104L9.06561 18.3343L1.06561 10.3343L1.04546 10.3135C1.03311 10.3003 1.02118 10.2867 1.00969 10.2727L0.989539 10.2473L1.06561 10.3343C1.03226 10.301 1.00225 10.2656 0.975602 10.2285C0.965377 10.2141 0.955615 10.1996 0.946299 10.1847C0.937717 10.1712 0.929563 10.1574 0.921836 10.1433L0.921854 10.1432L0.916511 10.1335C0.912381 10.1258 0.90838 10.118 0.904506 10.1102C0.891542 10.0839 0.879772 10.0567 0.869424 10.0288C0.866345 10.0204 0.863181 10.0114 0.860174 10.0024C0.85112 9.97536 0.843489 9.94797 0.837231 9.92005C0.83424 9.90634 0.83159 9.89299 0.829262 9.87959C0.825586 9.85891 0.822656 9.83725 0.820558 9.81534C0.81866 9.79512 0.817463 9.77546 0.816946 9.75578C0.816754 9.7488 0.81665 9.74106 0.81665 9.7333L0.817189 9.70294C0.81783 9.6849 0.819043 9.66687 0.820827 9.64889L0.81665 9.7333C0.81665 9.68071 0.821426 9.62924 0.830568 9.57929C0.833054 9.5661 0.835829 9.55275 0.838928 9.53946C0.85665 9.46307 0.884852 9.39045 0.921854 9.32337L0.921836 9.32327C0.922412 9.32222 0.92299 9.32118 0.923571 9.32014C0.931085 9.30667 0.938515 9.29413 0.946296 9.28174C0.956294 9.26596 0.966803 9.2504 0.977801 9.23521C0.988084 9.22093 0.998676 9.20723 1.00974 9.19379C1.02118 9.17993 1.03311 9.16632 1.04546 9.1531C1.05192 9.14618 1.05869 9.13918 1.06561 9.13226L9.06561 1.13226C9.39756 0.800314 9.93575 0.800314 10.2677 1.13226Z" fill="#353945"/>
</svg>
