<svg width="18" height="18" viewBox="0 0 18 18" fill="none" xmlns="http://www.w3.org/2000/svg">
<path d="M9.00008 0.666504C4.39771 0.666504 0.666748 4.39746 0.666748 8.99984C0.666748 13.6022 4.39771 17.3332 9.00008 17.3332C13.6025 17.3332 17.3334 13.6022 17.3334 8.99984C17.3334 4.39746 13.6025 0.666504 9.00008 0.666504ZM10.9308 9.36813L8.58709 11.7119C8.4854 11.8136 8.3521 11.8645 8.21883 11.8645C7.759 11.8645 7.52153 11.3044 7.85057 10.9754L9.82603 8.99987L7.85057 7.02438C7.64715 6.821 7.64715 6.49121 7.85057 6.28783C8.05396 6.08444 8.38374 6.08444 8.58713 6.28783L10.9309 8.63158C11.1343 8.83499 11.1343 9.16475 10.9308 9.36813Z" fill="#D1D7E7"/>
</svg>
