<?xml version="1.0" encoding="utf-8"?>
<svg width="22" height="22" viewBox="0 0 28 28" xmlns="http://www.w3.org/2000/svg">
    <path
        d="M20.53,7H19V2a1,1,0,0,0-.44-.83,1,1,0,0,0-.93-.1l-15,6a1.16,1.16,0,0,0-.36.25A2.49,2.49,0,0,0,1,9.47V20.53A2.48,2.48,0,0,0,3.47,23H20.53A2.48,2.48,0,0,0,23,20.53V9.47A2.48,2.48,0,0,0,20.53,7ZM17,7H8.19L17,3.48Zm4,10H17a2,2,0,0,1,0-4h4Zm-4-6a4,4,0,0,0,0,8h4v1.53a.47.47,0,0,1-.47.47H3.47A.47.47,0,0,1,3,20.53V9.47A.47.47,0,0,1,3.47,9H20.53a.47.47,0,0,1,.47.47V11Z"
        fill="#FA2852" />
    <circle cx="18" cy="15" r="1" fill="#FA2852" />
    <path opacity="0.2" d="M 5.547 26.251 L 18.547 26.251" stroke="#FA2852" stroke-width="3"
        stroke-linecap="round" stroke-linejoin="round" />
</svg>