<svg width="10" height="10" viewBox="0 0 10 10" xmlns="http://www.w3.org/2000/svg">
<path fill-rule="evenodd" clip-rule="evenodd" d="M0.975663 0.975739C1.20998 0.741424 1.58988 0.741424 1.82419 0.975739L4.99993 4.15148L8.17566 0.975739C8.40998 0.741424 8.78988 0.741424 9.02419 0.975739C9.25851 1.21005 9.25851 1.58995 9.02419 1.82427L5.84845 5L9.02419 8.17574C9.25851 8.41005 9.25851 8.78995 9.02419 9.02427C8.78988 9.25858 8.40998 9.25858 8.17566 9.02427L4.99993 5.84853L1.82419 9.02427C1.58988 9.25858 1.20998 9.25858 0.975663 9.02427C0.741348 8.78995 0.741348 8.41005 0.975663 8.17574L4.1514 5L0.975663 1.82427C0.741348 1.58995 0.741348 1.21005 0.975663 0.975739Z" fill="currentColor"/>
</svg>
