
<svg width="16" height="16" viewBox="0 0 64 64" fill="none" xmlns="http://www.w3.org/2000/svg">
<path d="M54.2201 9.78012C51.8005 7.37047 48.5249 6.01758 45.1101 6.01758C41.6953 6.01758 38.4196 7.37047 36.0001 9.78012L27.1501 18.6001C26.7748 18.9781 26.565 19.4896 26.5669 20.0222C26.5688 20.5548 26.7822 21.0648 27.1601 21.4401C27.538 21.8154 28.0496 22.0252 28.5822 22.0233C29.1148 22.0214 29.6248 21.8081 30.0001 21.4301L38.8201 12.6101C39.6367 11.7406 40.6198 11.0442 41.7109 10.5622C42.802 10.0801 43.9788 9.82236 45.1715 9.80414C46.3642 9.78593 47.5484 10.0077 48.6537 10.4561C49.759 10.9046 50.7629 11.5707 51.6057 12.4149C52.4485 13.259 53.113 14.2639 53.5597 15.3699C54.0064 16.476 54.2263 17.6605 54.2062 18.8532C54.1861 20.0458 53.9264 21.2223 53.4426 22.3126C52.9589 23.4029 52.2609 24.3849 51.3901 25.2001L42.5701 34.0001C42.3843 34.1859 42.2369 34.4065 42.1363 34.6493C42.0357 34.8921 41.984 35.1523 41.984 35.4151C41.984 35.6779 42.0357 35.9381 42.1363 36.1809C42.2369 36.4237 42.3843 36.6443 42.5701 36.8301C42.7559 37.0159 42.9765 37.1633 43.2193 37.2639C43.4621 37.3645 43.7223 37.4162 43.9851 37.4162C44.2479 37.4162 44.5081 37.3645 44.7509 37.2639C44.9937 37.1633 45.2143 37.0159 45.4001 36.8301L54.2201 28.0001C56.6273 25.5793 57.9785 22.3041 57.9785 18.8901C57.9785 15.4762 56.6273 12.201 54.2201 9.78012V9.78012Z" fill="black"/>
<path d="M34 42.5701L25.2 51.3901C23.5305 53.0596 21.2661 53.9976 18.905 53.9976C16.5439 53.9976 14.2795 53.0596 12.61 51.3901C10.9405 49.7206 10.0025 47.4562 10.0025 45.0951C10.0025 42.734 10.9405 40.4696 12.61 38.8001L21.43 30.0001C21.8053 29.6248 22.0161 29.1158 22.0161 28.5851C22.0161 28.0544 21.8053 27.5454 21.43 27.1701C21.0547 26.7948 20.5457 26.584 20.015 26.584C19.4843 26.584 18.9753 26.7948 18.6 27.1701L9.78001 36.0001C7.562 38.4548 6.37185 41.6678 6.45555 44.9751C6.53925 48.2823 7.8904 51.431 10.2297 53.7704C12.5691 56.1097 15.7178 57.4609 19.025 57.5446C22.3323 57.6283 25.5453 56.4381 28 54.2201L36.82 45.4001C37.1654 45.0203 37.3515 44.5221 37.3398 44.0089C37.3281 43.4956 37.1194 43.0065 36.757 42.6428C36.3947 42.2791 35.9063 42.0688 35.3931 42.0552C34.8798 42.0417 34.3811 42.226 34 42.5701V42.5701Z" fill="black"/>
<path d="M36.5699 24.33L24.3999 36.68C24.2154 36.8672 24.0695 37.0888 23.9707 37.3323C23.8718 37.5758 23.8219 37.8364 23.8238 38.0992C23.8256 38.362 23.8792 38.6218 23.9815 38.8639C24.0838 39.106 24.2328 39.3255 24.4199 39.51C24.607 39.6945 24.8287 39.8404 25.0722 39.9392C25.3157 40.0381 25.5762 40.088 25.839 40.0862C26.1018 40.0843 26.3617 40.0307 26.6038 39.9284C26.8458 39.8261 27.0654 39.6772 27.2499 39.49L39.4199 27.13C39.7925 26.7521 39.9998 26.2416 39.996 25.7109C39.9923 25.1802 39.7778 24.6727 39.3999 24.3C39.022 23.9274 38.5115 23.7202 37.9808 23.7239C37.45 23.7277 36.9425 23.9421 36.5699 24.32V24.33Z" fill="black"/>
</svg>
