<svg width="16" height="16" viewBox="0 0 16 16" fill="none" xmlns="http://www.w3.org/2000/svg">
					<path
						d="M13.1573 11.2009L13.1414 11.1821C12.581 10.5184 11.871 10.008 11.0744 9.6792C10.2566 10.4443 9.15855 10.9133 7.95294 10.9133C6.76653 10.9133 5.68439 10.459 4.87086 9.71542C4.1088 10.0448 3.4293 10.5421 2.88892 11.182L2.8729 11.201C2.00337 12.2307 1.5625 13.4 1.5625 14.6766V15.0939H14.4678V14.6766C14.4678 13.4 14.0269 12.2307 13.1573 11.2009Z"
						fill="#FA2852"
					/>
					<path
						d="M3.51113 7.58272H3.55156H4.42679H4.42704C4.33309 7.31691 4.26839 7.03748 4.23687 6.74816H4.23709H7.4137V7.58272H4.42704C4.48904 7.75823 4.5641 7.92759 4.6505 8.09002C4.92418 8.60558 5.32077 9.05472 5.79694 9.39213C6.40656 9.82415 7.1504 10.0787 7.95283 10.0787C8.76388 10.0787 9.51529 9.81895 10.1286 9.37841C10.5155 9.09962 10.8499 8.74796 11.1062 8.34556C11.2577 8.10808 11.3833 7.85251 11.4786 7.58275H11.4787H12.3541H12.429C12.9615 7.58275 13.3947 7.14956 13.3947 6.61705V6.33088C13.3947 3.33974 10.9612 0.90625 7.97005 0.90625C4.9789 0.90625 2.54541 3.33974 2.54541 6.33088V6.61702C2.54544 7.14953 2.97866 7.58272 3.51113 7.58272ZM7.97008 1.74081C10.0672 1.74081 11.8401 3.15461 12.3863 5.07904H11.4718C10.9532 3.63654 9.57168 2.6021 7.95286 2.6021C6.33401 2.6021 4.95239 3.63654 4.43377 5.07904H3.55381C4.10008 3.15461 5.87294 1.74081 7.97008 1.74081Z"
						fill="#FA2852"
					/>
				</svg>