<svg width="16" height="16" viewBox="0 0 16 16" fill="none" xmlns="http://www.w3.org/2000/svg">
<path d="M16 2.09316C16 0.937118 15.0629 0 13.9068 0H2.09316C0.937118 0 0 0.937118 0 2.09316V13.9068C0 15.0629 0.937118 16 2.09316 16H13.9068C15.0629 16 16 15.0629 16 13.9068V2.09316ZM3.59148 13.0651C3.24482 13.1581 2.92757 12.8409 3.02056 12.4942L3.20355 11.8121C3.37776 11.1628 4.18947 10.9454 4.66485 11.4208C5.14021 11.8962 4.92288 12.7079 4.27358 12.8821L3.59148 13.0651ZM12.828 5.27252L7.56271 10.5379C6.97482 11.1258 6.02165 11.1258 5.43376 10.5379C4.84587 9.95004 4.84587 8.99688 5.43376 8.40899L10.6991 3.14366C10.9993 2.84344 11.4859 2.84344 11.7862 3.14366L12.828 4.18555C13.1282 4.48568 13.1282 4.9723 12.828 5.27252Z" fill="currentColor"/>
</svg>
