<svg width="24" height="24" viewBox="0 0 24 24" fill="none" xmlns="http://www.w3.org/2000/svg">
				<path
					d="M23.3529 10.4388C23.3523 10.4383 23.3518 10.4377 23.3512 10.4372L13.5611 0.647461C13.1438 0.22998 12.589 0 11.9989 0C11.4087 0 10.8539 0.229797 10.4365 0.647278L0.651483 10.4321C0.648187 10.4354 0.644891 10.4388 0.641595 10.4421C-0.215338 11.304 -0.213873 12.7024 0.645807 13.5621C1.03857 13.955 1.55731 14.1826 2.11193 14.2064C2.13445 14.2086 2.15716 14.2097 2.18005 14.2097H2.57024V21.4144C2.57024 22.84 3.73022 24 5.15624 24H8.98644C9.37462 24 9.68957 23.6852 9.68957 23.2969V17.6484C9.68957 16.9979 10.2187 16.4687 10.8693 16.4687H13.1285C13.779 16.4687 14.3082 16.9979 14.3082 17.6484V23.2969C14.3082 23.6852 14.623 24 15.0113 24H18.8415C20.2676 24 21.4275 22.84 21.4275 21.4144V14.2097H21.7894C22.3793 14.2097 22.9341 13.9799 23.3518 13.5624C24.2124 12.7013 24.2128 11.3005 23.3529 10.4388Z"
					
				/>
			</svg>