<svg width="18" height="18" viewBox="0 0 20 18" fill="none" xmlns="http://www.w3.org/2000/svg">
    <path
        d="M9.84778 5.83253L12.7108 8.69551L12.7244 8.54554C12.7244 7.04133 11.502 5.81889 9.99774 5.81889L9.84778 5.83253Z"
        fill="#353945" />
    <path
        d="M9.9977 4.00115C12.5062 4.00115 14.5421 6.03707 14.5421 8.54559C14.5421 9.13182 14.424 9.69078 14.2195 10.2043L16.878 12.8628C18.2504 11.7176 19.332 10.2361 20 8.54559C18.4231 4.5556 14.5467 1.72896 9.99775 1.72896C8.72529 1.72896 7.50742 1.95616 6.37585 2.36516L8.33905 4.32379C8.85251 4.12385 9.41147 4.00115 9.9977 4.00115Z"
        fill="#353945" />
    <path
        d="M0.90887 1.52441L2.98113 3.59667L3.39468 4.01023C1.89502 5.18269 0.70893 6.74144 0 8.54554C1.57238 12.5355 5.45331 15.3622 9.99774 15.3622C11.4065 15.3622 12.7517 15.0895 13.9832 14.5942L14.3695 14.9804L17.0189 17.6344L18.1777 16.4801L2.0677 0.365585L0.90887 1.52441ZM5.93503 6.54601L7.33925 7.95024C7.29836 8.14566 7.27109 8.34104 7.27109 8.54554C7.27109 10.0498 8.49352 11.2722 9.99774 11.2722C10.2022 11.2722 10.3977 11.2449 10.5885 11.204L11.9928 12.6083C11.3883 12.9082 10.7158 13.09 9.99774 13.09C7.48922 13.09 5.45331 11.0541 5.45331 8.54554C5.45331 7.82754 5.6351 7.15495 5.93503 6.54601Z"
        fill="#353945" />
</svg>