<svg width="18" height="14" viewBox="0 0 20 14" fill="none" xmlns="http://www.w3.org/2000/svg">
    <path
        d="M10 0.333252C5.72427 0.333252 2.00024 3.01875 0 7.00001C2.00024 10.982 5.72427 13.6668 10 13.6668C14.2757 13.6668 17.9998 10.982 20 7.00001C17.9998 3.01875 14.2757 0.333252 10 0.333252ZM10 11.1668C7.69849 11.1668 5.83325 9.30152 5.83325 7.00001C5.83325 4.69849 7.69849 2.83325 10 2.83325C12.3015 2.83325 14.1667 4.69849 14.1667 7.00001C14.1667 9.30152 12.3015 11.1668 10 11.1668Z"
        fill="#353945" />
    <path
        d="M10 9.49999C11.3807 9.49999 12.5 8.38071 12.5 7C12.5 5.61929 11.3807 4.5 10 4.5C8.61929 4.5 7.5 5.61929 7.5 7C7.5 8.38071 8.61929 9.49999 10 9.49999Z"
        fill="#353945" />
</svg>