<svg width="18" height="18" viewBox="0 0 15 13" fill="none" xmlns="http://www.w3.org/2000/svg">
    <path fill-rule="evenodd" clip-rule="evenodd" d="M3.48051 0.375565C2.86177 0.375565 2.33302 0.77972 2.13192 1.3339H12.4948C12.2935 0.77972 11.764 0.375565 11.1453 0.375565H3.48051ZM1.56384 2.29317C0.775754 2.29317 0.123535 2.94445 0.123535 3.73254V11.3973C0.123535 12.1854 0.775754 12.8376 1.56384 12.8376H13.0629C13.851 12.8376 14.4985 12.1854 14.4985 11.3973V3.73254C14.4985 2.94445 13.851 2.29317 13.0629 2.29317H1.56384ZM7.30448 4.20328C7.57615 4.19817 7.79718 4.4192 7.79207 4.69087V9.2832L8.89266 8.18542C8.93562 8.13526 8.98849 8.09453 9.04794 8.06577C9.10739 8.03702 9.17215 8.02086 9.23814 8.01832C9.30413 8.01577 9.36993 8.02689 9.43142 8.05099C9.49291 8.07508 9.54876 8.11162 9.59546 8.15832C9.64216 8.20502 9.6787 8.26086 9.70279 8.32235C9.72688 8.38384 9.738 8.44965 9.73546 8.51564C9.73292 8.58163 9.71676 8.64638 9.688 8.70584C9.65925 8.76529 9.61851 8.81815 9.56836 8.86112L7.65076 10.7787C7.56097 10.868 7.43951 10.9181 7.31291 10.9181C7.1863 10.9181 7.06484 10.868 6.97506 10.7787L5.05839 8.86112C4.99283 8.79749 4.94683 8.71646 4.9258 8.62756C4.90476 8.53866 4.90958 8.44561 4.93967 8.35935C4.96977 8.2731 5.02389 8.19725 5.09566 8.14073C5.16743 8.08421 5.25386 8.04939 5.34477 8.04036C5.41639 8.03377 5.48857 8.04339 5.55597 8.0685C5.62336 8.09361 5.68424 8.13357 5.73409 8.18542L6.83374 9.286V4.69087C6.82877 4.42614 7.03975 4.20871 7.30448 4.20328Z" fill="#353945" />
</svg>