<svg xmlns="http://www.w3.org/2000/svg" viewBox="0 0 64 64" width="24px" height="24px">
    <path fill="#FAB400"
        d="M46,8H18c-1.105,0-2,0.895-2,2v12c0,1.105,0.895,2,2,2h12c0.552,0,1,0.448,1,1v2c0,0.552,0.448,1,1,1 s1-0.448,1-1v-2c0-0.552,0.448-1,1-1h12c1.105,0,2-0.895,2-2V10C48,8.895,47.105,8,46,8z" />
    <path fill="#C80A50" d="M20,44v11c0,0.55-0.45,1-1,1H7c-0.55,0-1-0.45-1-1V44H20z" />
    <path fill="#00A0C8" d="M18,44H8v-4c0-2.209,1.791-4,4-4h2c2.209,0,4,1.791,4,4V44z" />
    <path fill="#00143C"
        d="M21,44H5c-0.552,0-1-0.448-1-1l0,0c0-0.552,0.448-1,1-1h16c0.552,0,1,0.448,1,1l0,0 C22,43.552,21.552,44,21,44z" />
    <rect width="14" height="1" x="6" y="44" fill="#A00028" />
    <circle cx="13" cy="33" r="3" fill="#F2C8A0" />
    <g>
        <path fill="#C80A50" d="M58,44v11c0,0.55-0.45,1-1,1H45c-0.55,0-1-0.45-1-1V44H58z" />
        <path fill="#00A0C8" d="M56,44H46v-4c0-2.209,1.791-4,4-4h2c2.209,0,4,1.791,4,4V44z" />
        <path fill="#00143C"
            d="M59,44H43c-0.552,0-1-0.448-1-1l0,0c0-0.552,0.448-1,1-1h16c0.552,0,1,0.448,1,1l0,0 C60,43.552,59.552,44,59,44z" />
        <rect width="14" height="1" x="44" y="44" fill="#A00028" />
        <circle cx="51" cy="33" r="3" fill="#F2C8A0" />
    </g>
    <g>
        <path fill="#C80A50" d="M39,44v11c0,0.55-0.45,1-1,1H26c-0.55,0-1-0.45-1-1V44H39z" />
        <path fill="#00A0C8" d="M37,44H27v-4c0-2.209,1.791-4,4-4h2c2.209,0,4,1.791,4,4V44z" />
        <path fill="#00143C"
            d="M40,44H24c-0.552,0-1-0.448-1-1l0,0c0-0.552,0.448-1,1-1h16c0.552,0,1,0.448,1,1l0,0 C41,43.552,40.552,44,40,44z" />
        <rect width="14" height="1" x="25" y="44" fill="#A00028" />
        <circle cx="32" cy="33" r="3" fill="#F2C8A0" />
    </g>
    <g>
        <path fill="#00143C"
            d="M32,10c-2.209,0-4,1.791-4,4v7c0,0.552,0.448,1,1,1s1-0.448,1-1v-3h4v3c0,0.552,0.448,1,1,1 s1-0.448,1-1v-7C36,11.791,34.209,10,32,10z M34,16h-4v-2c0-1.105,0.895-2,2-2s2,0.895,2,2V16z" />
        <path fill="#00143C"
            d="M46,13v-2c0-0.552-0.448-1-1-1l0,0c-0.552,0-1,0.448-1,1v1.893C44,13.967,43.204,15,42,15 c-1.105,0-2-0.896-2-2v-2c0-0.552-0.448-1-1-1l0,0c-0.552,0-1,0.448-1,1v2c0,1.202,0.541,2.267,1.38,3 C38.541,16.733,38,17.798,38,19v2c0,0.552,0.448,1,1,1l0,0c0.552,0,1-0.448,1-1v-1.893C40,18.033,40.796,17,42,17 c1.105,0,2,0.895,2,2v2c0,0.552,0.448,1,1,1l0,0c0.552,0,1-0.448,1-1v-2c0-1.202-0.541-2.267-1.38-3 C45.459,15.267,46,14.202,46,13z" />
        <path fill="#00143C"
            d="M23.736,10.793L22,16l-1.736-5.207C20.106,10.319,19.663,10,19.164,10H19.16 C18.519,10,18,10.519,18,11.16V21c0,0.552,0.448,1,1,1h0c0.552,0,1-0.448,1-1v-5l0.684,2.051C20.873,18.618,21.403,19,22,19h0 c0.597,0,1.127-0.382,1.316-0.949L24,16v5c0,0.552,0.448,1,1,1h0c0.552,0,1-0.448,1-1v-9.84c0-0.641-0.519-1.16-1.16-1.16 h-0.004C24.337,10,23.894,10.319,23.736,10.793z" />
    </g>
</svg>