<svg width="24" height="20" viewBox="0 0 24 20" fill="none" xmlns="http://www.w3.org/2000/svg">
<path fill-rule="evenodd" clip-rule="evenodd" d="M6.36882 0.000854492C5.37884 0.000854492 4.53284 0.647503 4.21108 1.53419H20.7917C20.4696 0.647503 19.6225 0.000854416 18.6325 0.000854492H6.36882ZM3.30216 3.06902C2.04122 3.06902 0.997665 4.11108 0.997665 5.37201V17.6357C0.997665 18.8966 2.04122 19.9402 3.30216 19.9402H21.7007C22.9616 19.9402 23.9977 18.8966 23.9977 17.6357V5.37201C23.9977 4.11108 22.9616 3.06902 21.7007 3.06902H3.30216ZM12.4872 6.1252C12.9219 6.11703 13.2755 6.47067 13.2673 6.90534V14.2531L15.0283 12.4966C15.097 12.4164 15.1816 12.3512 15.2767 12.3052C15.3718 12.2592 15.4754 12.2333 15.581 12.2293C15.6866 12.2252 15.7919 12.243 15.8903 12.2815C15.9887 12.3201 16.078 12.3785 16.1527 12.4533C16.2275 12.528 16.2859 12.6173 16.3245 12.7157C16.363 12.8141 16.3808 12.9194 16.3767 13.025C16.3727 13.1306 16.3468 13.2342 16.3008 13.3293C16.2548 13.4244 16.1896 13.509 16.1094 13.5777L13.0412 16.6459C12.8976 16.7887 12.7032 16.8689 12.5007 16.8689C12.2981 16.8689 12.1038 16.7887 11.9601 16.6459L8.89343 13.5777C8.78854 13.4759 8.71494 13.3463 8.68128 13.2041C8.64763 13.0618 8.65533 12.9129 8.70348 12.7749C8.75164 12.6369 8.83823 12.5155 8.95306 12.4251C9.0679 12.3347 9.20619 12.279 9.35164 12.2645C9.46623 12.254 9.58172 12.2694 9.68956 12.3096C9.79739 12.3497 9.8948 12.4137 9.97455 12.4966L11.734 14.2576V6.90534C11.726 6.48177 12.0636 6.13389 12.4872 6.1252Z" fill="#353945"/>
</svg>
