<svg width="16" height="16" viewBox="0 0 12 16" fill="none" xmlns="http://www.w3.org/2000/svg">
					<path
						d="M10.3935 6.76413H9.82638H9.82623V4.74657C9.8262 2.61182 8.10678 0.875 5.99327 0.875C3.87987 0.875 2.16039 2.61182 2.16039 4.7466V6.76416H1.59318C1.1448 6.76416 0.78125 7.13131 0.78125 7.58424V8.08314V13.7748V14.2736C0.78125 14.7266 1.14477 15.0937 1.59318 15.0937H5.99329H10.3935C10.8418 15.0937 11.2053 14.7266 11.2053 14.2736V13.7748V8.08314V7.58424C11.2053 7.13128 10.8418 6.76413 10.3935 6.76413ZM6.85749 12.6386H5.12913L5.43846 11.1497C5.14917 10.9638 4.95594 10.6391 4.95594 10.2671C4.95594 9.68842 5.42042 9.21932 5.99329 9.21932C6.5662 9.21932 7.03059 9.68842 7.03059 10.2671C7.03059 10.6391 6.83742 10.9638 6.54816 11.1497L6.85749 12.6386ZM8.45858 6.76413H5.99329H3.52815H3.52801V4.74657C3.52801 3.37338 4.63386 2.2564 5.99329 2.2564C7.35278 2.2564 8.45858 3.37341 8.45858 4.74657V6.76413Z"
						fill="#83BD67"
					/>
				</svg>