<svg viewBox="0 0 78 80" fill="none" xmlns="http://www.w3.org/2000/svg">
<path d="M34.8574 72.4491C34.8574 69.9762 33.3988 67.6896 31.1013 66.7794C21.1765 62.8424 15.1778 53.0492 15.1778 39.6261C15.1778 25.9233 21.0614 16.1959 31.0519 12.3247C33.3769 11.4255 34.8574 9.12795 34.8574 6.63305V6.19986C34.8574 2.05448 30.8381 -0.961338 26.8846 0.283372C10.3689 5.48154 0 19.9465 0 39.5329C0 59.366 10.177 73.6555 26.8792 78.8865C30.8381 80.1258 34.8574 77.1154 34.8574 72.9701V72.4491Z" fill="#EC1C24"/>
<path d="M48.9659 6.83596C48.9659 9.33086 50.4957 11.5023 52.7658 12.5331C57.6789 14.7758 60.2122 18.5209 62.0271 22.2605C63.2773 24.5361 65.5693 25.7863 68.47 25.7863C69.6873 25.7863 70.773 25.6272 71.7216 25.3202C74.1672 24.6238 76.6292 22.5785 76.6292 19.5846C76.6292 18.6086 76.4098 17.671 75.9821 16.8046C73.1144 10.7894 67.6091 3.97368 57.0867 0.480813C53.0894 -0.846146 48.9604 2.13678 48.9604 6.34796V6.83596H48.9659Z" fill="#EC1C24"/>
<path d="M72.566 51.1739C68.1739 50.0992 64.4069 51.629 62.9374 55.0835C60.8482 60.6107 57.3554 64.4709 52.5081 66.6368C50.3313 67.6129 48.9659 69.8226 48.9659 72.2079V72.8549C48.9659 77.0386 53.0729 80.1038 57.0264 78.7385C69.3254 74.4779 75.0226 65.3647 77.5284 59.2727C77.852 58.4338 78 57.71 78 56.9259C78 53.8717 75.2309 51.7113 72.566 51.1739Z" fill="#EC1C24"/>
</svg>
