<svg width="26" height="22" viewBox="0 0 26 22" fill="none" xmlns="http://www.w3.org/2000/svg">
<path d="M26 1.00665V3.25309L0 16.5029V14.2554L0.944915 13.7735C1.29661 13.5943 1.58745 13.3151 1.78084 12.9709C1.97422 12.6268 2.06152 12.2331 2.03173 11.8395C2.01046 11.5616 1.99983 11.2825 1.99983 11.0023C1.99962 8.97381 2.56023 6.98473 3.61968 5.25493C4.67914 3.52513 6.1962 2.12196 8.00319 1.20051C9.81018 0.279059 11.8367 -0.124793 13.8589 0.0335878C15.881 0.191969 17.82 0.906416 19.4615 2.09797L17.4023 3.14748C16.0325 2.38238 14.4865 1.98844 12.9177 2.0047C11.3488 2.02096 9.81137 2.44685 8.45771 3.24018C7.10405 4.03351 5.98111 5.16676 5.20013 6.52766C4.41915 7.88857 4.00723 9.42992 4.00516 10.999C4.00532 11.3923 4.03104 11.7851 4.08216 12.1751L26 1.00665Z" fill="#7781A2"/>
<path d="M5.47588 15.9529L26 5.50179V7.74163L25.054 8.22348C24.7026 8.40297 24.4121 8.6823 24.2189 9.0264C24.0257 9.37049 23.9385 9.764 23.9683 10.1575C23.9892 10.4369 24.0002 10.7196 24.0002 11.0024C23.9995 13.0306 23.4382 15.0192 22.3783 16.7484C21.3184 18.4776 19.8011 19.88 17.9941 20.8009C16.1871 21.7217 14.1608 22.125 12.1389 21.9662C10.1171 21.8075 8.17854 21.0928 6.5374 19.9012L8.48003 18.9111L8.59003 18.8528C9.96014 19.6211 11.5073 20.0177 13.0781 20.0031C14.6488 19.9885 16.1884 19.5633 17.544 18.7697C18.8996 17.9762 20.0241 16.8418 20.8058 15.4792C21.5876 14.1167 21.9994 12.5733 22.0003 11.0024C22.0002 10.6066 21.9745 10.2112 21.9233 9.81865L0 20.9904V18.745L5.47588 15.9529Z" fill="#7781A2"/>
</svg>
