<svg width="24" height="24" viewBox="0 0 24 24" fill="none" xmlns="http://www.w3.org/2000/svg">
<path d="M13.604 11.0989H22.5922C23.4103 11.0989 24.0585 10.401 23.9956 9.58431C23.8051 7.11301 22.732 4.78384 20.9739 3.02584C19.216 1.26779 16.8868 0.194682 14.4155 0.00418191C13.5996 -0.0583493 12.9009 0.588385 12.9009 1.40748V10.3958C12.9009 10.7841 13.2157 11.0989 13.604 11.0989V11.0989Z" fill="#353945"/>
<path d="M22.5924 12.5114H13.6039C12.9833 12.5114 12.6681 13.2595 13.0991 13.704L19.3563 20.1564C19.9269 20.7448 20.8782 20.7234 21.4194 20.1107C22.9296 18.4005 23.8205 16.2968 23.9957 14.0271C24.0588 13.2106 23.4115 12.5114 22.5924 12.5114V12.5114Z" fill="#353945"/>
<path d="M11.1258 13.9859V4.58386C11.1258 3.76462 10.4262 3.11765 9.60733 3.18084C7.02616 3.38076 4.62288 4.5314 2.84032 6.42079C1.05012 8.31834 0.0418837 10.7993 0.00128998 13.4069C-0.0420694 16.1902 1.00891 18.828 2.9606 20.8342C4.91055 22.8386 7.5154 23.9608 10.2952 23.9941C10.3383 23.9946 10.3813 23.9949 10.4243 23.9949C12.6539 23.9949 14.7776 23.3021 16.5735 21.9873C17.2593 21.4853 17.348 20.4931 16.7602 19.8784L11.1258 13.9859Z" fill="#353945"/>
</svg>
