<svg width="22" height="24" viewBox="0 0 22 24" fill="none" xmlns="http://www.w3.org/2000/svg">
				<path
					d="M10.666 24C11.2256 23.9987 11.7758 23.8566 12.2659 23.5867L19.6321 19.5069C20.145 19.2186 20.5725 18.7997 20.8711 18.2928C21.1696 17.7858 21.3287 17.2088 21.332 16.6204V7.381C21.3287 6.79265 21.1696 6.21567 20.8711 5.70869C20.5725 5.20172 20.145 4.7828 19.6321 4.49451L12.2993 0.414759C11.8099 0.142749 11.2592 0 10.6994 0C10.1395 0 9.58882 0.142749 9.09945 0.414759L1.76656 4.49451C1.24123 4.77413 0.800351 5.18929 0.489701 5.69688C0.17905 6.20447 0.0099627 6.78598 0 7.381V16.6204C0.0033723 17.2088 0.162422 17.7858 0.46099 18.2928C0.759557 18.7997 1.187 19.2186 1.6999 19.5069L9.06612 23.5867C9.55627 23.8566 10.1065 23.9987 10.666 24ZM15.3324 8.66759H17.9989C18.1757 8.66759 18.3453 8.73783 18.4703 8.86284C18.5953 8.98786 18.6655 9.15742 18.6655 9.33422C18.6655 9.51102 18.5953 9.68058 18.4703 9.8056C18.3453 9.93061 18.1757 10.0008 17.9989 10.0008H17.3323V14.6672C17.3323 14.844 17.2621 15.0136 17.137 15.1386C17.012 15.2636 16.8425 15.3339 16.6657 15.3339C16.4889 15.3339 16.3193 15.2636 16.1943 15.1386C16.0693 15.0136 15.999 14.844 15.999 14.6672V10.0008H15.3324C15.1556 10.0008 14.986 9.93061 14.861 9.8056C14.736 9.68058 14.6658 9.51102 14.6658 9.33422C14.6658 9.15742 14.736 8.98786 14.861 8.86284C14.986 8.73783 15.1556 8.66759 15.3324 8.66759ZM9.33277 9.33422C9.33277 9.15742 9.403 8.98786 9.52802 8.86284C9.65304 8.73783 9.82259 8.66759 9.9994 8.66759H12.6659C12.8427 8.66759 13.0123 8.73783 13.1373 8.86284C13.2623 8.98786 13.3325 9.15742 13.3325 9.33422C13.3325 9.51102 13.2623 9.68058 13.1373 9.8056C13.0123 9.93061 12.8427 10.0008 12.6659 10.0008H10.666V11.3341H12.6659C12.8427 11.3341 13.0123 11.4043 13.1373 11.5293C13.2623 11.6544 13.3325 11.8239 13.3325 12.0007C13.3325 12.1775 13.2623 12.3471 13.1373 12.4721C13.0123 12.5971 12.8427 12.6674 12.6659 12.6674H10.666V14.6672C10.666 14.844 10.5958 15.0136 10.4708 15.1386C10.3458 15.2636 10.1762 15.3339 9.9994 15.3339C9.82259 15.3339 9.65304 15.2636 9.52802 15.1386C9.403 15.0136 9.33277 14.844 9.33277 14.6672V9.33422ZM7.99952 14.6672C7.99952 14.844 7.92928 15.0136 7.80427 15.1386C7.67925 15.2636 7.50969 15.3339 7.33289 15.3339C7.21655 15.3332 7.10243 15.302 7.00185 15.2435C6.90128 15.1851 6.81776 15.1013 6.75959 15.0005L3.99976 11.3341V14.6672C3.99976 14.844 3.92952 15.0136 3.80451 15.1386C3.67949 15.2636 3.50993 15.3339 3.33313 15.3339C3.15633 15.3339 2.98677 15.2636 2.86176 15.1386C2.73674 15.0136 2.66651 14.844 2.66651 14.6672V9.33422C2.66651 9.15742 2.73674 8.98786 2.86176 8.86284C2.98677 8.73783 3.15633 8.66759 3.33313 8.66759C3.44947 8.66829 3.56359 8.69943 3.66417 8.7579C3.76474 8.81638 3.84826 8.90015 3.90643 9.00091L6.66626 12.6674V9.33422C6.66626 9.15742 6.7365 8.98786 6.86151 8.86284C6.98653 8.73783 7.15609 8.66759 7.33289 8.66759C7.50969 8.66759 7.67925 8.73783 7.80427 8.86284C7.92928 8.98786 7.99952 9.15742 7.99952 9.33422V14.6672Z"
					fill="#353945"
				/>
			</svg>