<?xml version="1.0" standalone="no"?>
<!DOCTYPE svg PUBLIC "-//W3C//DTD SVG 20010904//EN"
 "http://www.w3.org/TR/2001/REC-SVG-20010904/DTD/svg10.dtd">
<svg version="1.0" xmlns="http://www.w3.org/2000/svg"
 width="256.000000pt" height="256.000000pt" viewBox="0 0 256.000000 256.000000"
 preserveAspectRatio="xMidYMid meet">

<g transform="translate(0.000000,256.000000) scale(0.100000,-0.100000)"
fill="#000000" stroke="none">
<path d="M812 2126 c-307 -153 -456 -233 -471 -252 -21 -27 -21 -30 -21 -594
0 -564 0 -567 21 -594 24 -30 904 -476 939 -476 35 0 915 446 939 476 21 27
21 30 21 594 0 564 0 567 -21 594 -24 30 -904 476 -939 476 -11 0 -221 -101
-468 -224z m843 -193 l375 -188 0 -465 0 -465 -375 -188 -375 -187 -375 187
-375 188 0 465 0 465 373 187 c204 103 373 187 374 187 2 1 172 -83 378 -186z"/>
<path d="M1118 1903 c-15 -10 -31 -24 -35 -33 -5 -8 -10 -161 -13 -340 l-5
-325 -120 235 c-101 198 -125 238 -153 254 -29 16 -39 17 -73 7 -27 -8 -46
-23 -59 -44 -19 -30 -20 -53 -20 -377 0 -323 1 -347 19 -376 25 -41 80 -61
121 -44 57 24 65 42 70 167 l5 115 117 -234 c124 -249 139 -268 208 -268 23 0
42 10 66 34 l34 34 0 245 0 245 56 -15 c45 -11 62 -12 86 -2 83 34 92 149 15
191 -12 6 -51 19 -87 28 l-65 16 -3 122 c-1 67 1 122 5 122 5 0 123 -38 263
-85 237 -80 258 -85 293 -75 41 12 77 57 77 98 0 32 -26 79 -52 93 -41 22
-673 229 -698 229 -14 0 -37 -8 -52 -17z"/>
<path d="M1663 1376 c-56 -25 -63 -53 -63 -258 0 -163 2 -186 19 -214 38 -63
124 -66 171 -6 18 23 20 41 20 223 l0 199 -27 30 c-33 36 -76 45 -120 26z"/>
</g>
</svg>
