<svg width="18" height="18" viewBox="0 0 18 18" xmlns="http://www.w3.org/2000/svg">
<path d="M9.00008 0.666672C7.35191 0.666672 5.74074 1.15541 4.37033 2.07109C2.99992 2.98677 1.93182 4.28826 1.30109 5.81098C0.670359 7.33369 0.505331 9.00925 0.826874 10.6258C1.14842 12.2423 1.94209 13.7271 3.10753 14.8926C4.27297 16.058 5.75782 16.8517 7.37433 17.1732C8.99084 17.4948 10.6664 17.3297 12.1891 16.699C13.7118 16.0683 15.0133 15.0002 15.929 13.6298C16.8447 12.2593 17.3334 10.6482 17.3334 9.00001C17.3334 7.90566 17.1179 6.82202 16.6991 5.81098C16.2803 4.79993 15.6665 3.88127 14.8926 3.10745C14.1188 2.33363 13.2002 1.7198 12.1891 1.30101C11.1781 0.88222 10.0944 0.666672 9.00008 0.666672ZM13.1668 9.83334H9.83342V13.1667C9.83342 13.3877 9.74562 13.5996 9.58934 13.7559C9.43306 13.9122 9.2211 14 9.00008 14C8.77907 14 8.56711 13.9122 8.41083 13.7559C8.25455 13.5996 8.16675 13.3877 8.16675 13.1667V9.83334H4.83342C4.6124 9.83334 4.40044 9.74554 4.24416 9.58926C4.08788 9.43298 4.00008 9.22102 4.00008 9.00001C4.00008 8.77899 4.08788 8.56703 4.24416 8.41075C4.40044 8.25447 4.6124 8.16667 4.83342 8.16667H8.16675V4.83334C8.16675 4.61232 8.25455 4.40036 8.41083 4.24408C8.56711 4.0878 8.77907 4.00001 9.00008 4.00001C9.2211 4.00001 9.43306 4.0878 9.58934 4.24408C9.74562 4.40036 9.83342 4.61232 9.83342 4.83334V8.16667H13.1668C13.3878 8.16667 13.5997 8.25447 13.756 8.41075C13.9123 8.56703 14.0001 8.77899 14.0001 9.00001C14.0001 9.22102 13.9123 9.43298 13.756 9.58926C13.5997 9.74554 13.3878 9.83334 13.1668 9.83334Z" fill="currentColor"/>
</svg>
