<?xml version="1.0" encoding="UTF-8"?>
<svg xmlns="http://www.w3.org/2000/svg" xml:space="preserve" width="32" height="32"
     version="1.1"
     style="shape-rendering:geometricPrecision; text-rendering:geometricPrecision; image-rendering:optimizeQuality; fill-rule:evenodd; clip-rule:evenodd"
     viewBox="0 0 1706.66 1706.66"
     xmlns:xlink="http://www.w3.org/1999/xlink"
     xmlns:xodm="http://www.corel.com/coreldraw/odm/2003">
 <defs>
  <style type="text/css">
   <![CDATA[
    .fil0 {fill:black}
   ]]>
  </style>
 </defs>
    <g id="Layer_x0020_1">
  <metadata id="CorelCorpID_0Corel-Layer"/>
        <path class="fil0" d="M853.3 1706.67c-2.22,0 -4.44,-0.41 -6.53,-1.11 -838.06,-291.67 -734.86,-1277.36 -720.42,-1388.75 1.49,-10.92 7.67,-19.05 18.75,-19.86 503.2,-37.22 690.28,-286.25 692.09,-288.75 7.9,-10.88 24.24,-10.98 32.36,0.14 1.8,2.5 188.89,251.53 692.09,288.75 11.11,0.8 17.28,8.74 18.61,19.72 14.58,111.39 117.78,1097.09 -720.42,1388.75 -2.08,0.7 -4.31,1.11 -6.53,1.11zm-688.89 -1371.11c-18.05,157.22 -85.28,1055.14 688.89,1329.86 774.31,-274.72 707.09,-1172.64 689.03,-1329.86 -433.89,-36.26 -633.89,-222.37 -689.03,-284.17 -55.14,61.8 -255.14,247.91 -688.89,284.17z"/>
        <path class="fil0" d="M731.21 1057.08c-5.14,0 -10.28,-1.94 -14.17,-5.83l-123.33 -123.33c-18.54,-18.54 9.53,-46.97 28.33,-28.33l109.17 109.17 353.47 -353.47c18.54,-18.54 46.98,9.53 28.33,28.33l-367.78 367.64c-3.89,3.89 -9.03,5.83 -14.03,5.83z"/>
        <path class="fil0" d="M853.3 1536.94c-2.22,0 -4.44,-0.41 -6.53,-1.11 -672.74,-229.18 -585.37,-1027.46 -576.25,-1111.67 1.11,-9.58 8.89,-17.09 18.47,-17.92 398.47,-29.44 546.67,-226.25 548.06,-228.33 7.42,-10.64 24.32,-11.14 32.22,0 1.39,1.94 149.72,198.75 548.06,228.19 11.14,0.8 17,8.62 18.61,19.44 11.53,89.03 93.89,876.81 -576.39,1110.14 -1.8,0.83 -4.03,1.25 -6.25,1.25zm-544.87 -1092.09c-14.86,133.33 -62.22,834.44 544.87,1050.83 606.95,-216.39 559.72,-917.64 545,-1050.83 -336.8,-29.03 -496.67,-171.39 -545,-224.02 -48.33,52.63 -208.2,195 -544.87,224.02z"/>
        <path class="fil0" d="M853.3 1376.53c-22.31,0 -27.75,-31.52 -6.53,-38.89 215,-74.86 349.72,-236.25 400.28,-480 5.31,-25.76 44.49,-17.74 39.17,8.06 -36.8,177.64 -140.7,410.28 -426.25,509.59 -2.22,0.83 -4.44,1.24 -6.67,1.24z"/>
 </g>
</svg>