<svg width="21" height="16" viewBox="0 0 21 16" fill="none" xmlns="http://www.w3.org/2000/svg">
<path d="M16.7422 1.06645C16.5469 0.871186 16.2303 0.871185 16.0351 1.06645L13.3013 3.80028C12.9863 4.11526 13.2094 4.65383 13.6548 4.65383H14.9034C15.1795 4.65383 15.4034 4.87769 15.4034 5.15383V11.5504C15.4034 12.6391 14.5216 13.5209 13.4329 13.5209C12.3443 13.5209 11.4625 12.6391 11.4625 11.5504V4.65383C11.4625 2.4814 9.694 0.712937 7.52157 0.712937C5.34915 0.712937 3.58068 2.4814 3.58068 4.65383V11.0504C3.58068 11.3265 3.35682 11.5504 3.08068 11.5504H1.83211C1.38665 11.5504 1.16357 12.089 1.47855 12.404L4.21234 15.1377C4.4076 15.333 4.72418 15.333 4.91945 15.1377L7.65327 12.404C7.96825 12.089 7.74517 11.5504 7.29971 11.5504H6.05115C5.77501 11.5504 5.55115 11.3265 5.55115 11.0504V4.65383C5.55115 3.56517 6.43291 2.68336 7.52162 2.68336C8.61033 2.68336 9.49204 3.56512 9.49204 4.65383V11.5504C9.49204 13.7228 11.2605 15.4913 13.4329 15.4913C15.6054 15.4913 17.3738 13.7228 17.3738 11.5504V5.15383C17.3738 4.87769 17.5977 4.65383 17.8738 4.65383H19.1224C19.5679 4.65383 19.7909 4.11526 19.476 3.80028L16.7422 1.06645Z" fill="#FA2852" stroke="#FA2852" stroke-width="0.2"/>
</svg>
