<svg width="15" height="17" viewBox="0 0 15 17" fill="none" xmlns="http://www.w3.org/2000/svg">
<path d="M14.2624 2.75273L7.75463 0.0507634C7.59161 -0.0169045 7.40836 -0.0169377 7.24537 0.0507634L0.737553 2.75273C0.489691 2.85566 0.328125 3.09765 0.328125 3.36603V6.65065C0.328125 11.1733 3.06171 15.2416 7.24905 16.9508C7.40989 17.0164 7.59008 17.0164 7.75095 16.9508C11.9382 15.2417 14.6719 11.1734 14.6719 6.65065V3.36603C14.6719 3.09765 14.5103 2.85566 14.2624 2.75273Z" fill="#828CAE"/>
<path d="M6.76601 8.88901L9.62029 6.03477C9.8796 5.77545 10.3001 5.77542 10.5594 6.03477C10.8188 6.29412 10.8187 6.71457 10.5594 6.97389L7.23557 10.2977C6.97619 10.5571 6.55574 10.557 6.29645 10.2977L4.4406 8.44183C4.18125 8.18248 4.18125 7.76203 4.4406 7.50271C4.69995 7.2434 5.1204 7.24336 5.37972 7.50271L6.76601 8.88901Z" fill="#252F47"/>
</svg>
