<svg width="24" height="24" viewBox="0 0 24 24" fill="none" xmlns="http://www.w3.org/2000/svg">
<path d="M23.5579 1.92799C23.2953 1.81927 22.9929 1.87934 22.7918 2.08038L20.9039 3.96824C19.0833 1.94701 16.667 0.625473 14.0188 0.177338C14.0621 0.34543 14.0852 0.521535 14.0852 0.702935V6.67702C15.0157 7.0348 15.8495 7.62441 16.4813 8.39093L14.0103 10.8619C13.8093 11.063 13.7492 11.3653 13.8579 11.628C13.9667 11.8906 14.223 12.0619 14.5073 12.0619H23.2889C23.6771 12.0619 23.9918 11.7472 23.9918 11.359V2.57739C23.9918 2.29308 23.8205 2.03675 23.5579 1.92799V1.92799Z" fill="#353945"/>
<path d="M1.3482 6.47128C0.69692 7.72192 0.272495 9.09098 0.0944214 10.4954C0.289599 10.4356 0.496633 10.4032 0.711119 10.4032H6.50765C6.87673 9.14374 7.67347 8.03393 8.77762 7.27983L11.4794 9.98149C11.6805 10.1826 11.9829 10.2426 12.2454 10.1339C12.5081 10.0251 12.6794 9.76874 12.6794 9.48447V0.702922C12.6794 0.314721 12.3646 0 11.9764 0H3.19478C2.91047 0 2.65418 0.171279 2.54537 0.433937C2.43661 0.696595 2.49673 0.998945 2.69776 1.19998L4.29954 2.8017C3.08803 3.81733 2.07643 5.0728 1.3482 6.47128V6.47128Z" fill="#353945"/>
<path d="M11.9952 24C10.1117 24 8.30835 23.5757 6.63521 22.7388C5.27623 22.059 4.0419 21.1106 3.0274 19.9714L1.20819 21.7906C1.00715 21.9916 0.704945 22.0517 0.442146 21.943C0.179441 21.8342 0.00820923 21.5778 0.00820923 21.2936V12.512C0.00820923 12.1238 0.322931 11.8091 0.711131 11.8091H9.49273C9.77704 11.8091 10.0333 11.9804 10.1421 12.243C10.2509 12.5057 10.1908 12.808 9.98974 13.0091L7.48467 15.5141C8.56632 16.9055 10.215 17.7212 11.9952 17.7212C14.0039 17.7212 15.8903 16.6435 16.9185 14.9084C17.0288 14.7221 17.219 14.5971 17.4338 14.5696C17.6487 14.542 17.8642 14.6151 18.018 14.7675L21.5414 18.2595C21.7905 18.5063 21.8195 18.8988 21.6096 19.1796C20.5157 20.6429 19.0802 21.8556 17.4582 22.6866C15.7572 23.5581 13.9192 24 11.9952 24V24Z" fill="#353945"/>
</svg>
