<svg width="14" height="14" viewBox="0 0 24 24" fill="none" xmlns="http://www.w3.org/2000/svg">
    <path
        d="M9.49333 0.277331C6.63466 0.639998 4.10666 1.70666 2.54933 3.21066C0.522663 5.16266 0.767996 7.66933 3.15733 9.472C4.55466 10.5173 6.11199 11.2 8.15999 11.6373C9.38666 11.904 12.3733 12.0533 13.92 11.9253C17.344 11.6373 20.7467 10.1013 22.08 8.24533C22.6667 7.424 22.8693 6.76266 22.8053 5.824C22.7413 4.8 22.3787 4.11733 21.3973 3.15733C19.04 0.842664 14.24 -0.320002 9.49333 0.277331Z"
        fill="#353945" />
    <path
        d="M1.3973 10.3893C1.19463 10.6347 1.50397 11.456 2.07997 12.192C3.2533 13.6746 5.50397 14.848 8.4693 15.488C9.9413 15.808 13.696 15.84 15.2426 15.5413C18.8693 14.8373 21.4826 13.3226 22.4533 11.3706C22.7306 10.816 22.8053 10.24 22.6026 10.24C22.5386 10.24 22.1546 10.4747 21.76 10.7733C20.256 11.8933 18.2613 12.736 15.9466 13.2266C14.5813 13.5253 10.9866 13.6426 9.41863 13.44C6.50663 13.0773 4.0533 12.1066 1.7493 10.4C1.54663 10.2507 1.50397 10.2507 1.3973 10.3893Z"
        fill="#353945" />
    <path
        d="M1.28003 14.4213C1.28003 14.9013 1.8027 15.9467 2.32536 16.544C3.55203 17.92 5.9947 19.072 8.76803 19.584C10.016 19.8187 12.832 19.8933 14.1867 19.744C16.512 19.4667 18.7947 18.6987 20.352 17.664C21.6747 16.7893 22.6667 15.4773 22.7414 14.5067C22.784 13.9627 22.56 13.9947 21.6534 14.6773C20.0534 15.872 17.76 16.7573 15.1467 17.184C13.344 17.4827 9.94136 17.4293 8.18136 17.0773C5.88803 16.6187 4.00003 15.84 2.4107 14.7093C1.94136 14.3573 1.4827 14.08 1.4187 14.08C1.33336 14.08 1.28003 14.2187 1.28003 14.4213Z"
        fill="#353945" />
    <path
        d="M1.28003 18.4747C1.28003 19.4133 2.40003 20.896 3.7867 21.8133C5.1947 22.7307 7.5307 23.5093 9.7387 23.7867C11.232 23.9787 14.144 23.872 15.6054 23.584C18.9547 22.912 21.504 21.376 22.4534 19.4773C22.7414 18.9013 22.816 18.1333 22.5814 18.1333C22.496 18.1333 22.1547 18.3467 21.824 18.6133C19.488 20.416 15.9254 21.4613 12.0534 21.4507C8.00003 21.44 4.51203 20.4267 2.1547 18.56C1.47203 18.0267 1.28003 18.016 1.28003 18.4747Z"
        fill="#353945" />
</svg>