<?xml version="1.0" encoding="UTF-8" standalone="no"?>
<svg width="32" height="32" viewBox="0 0 64 64" fill="none" xmlns="http://www.w3.org/2000/svg">
    <path
            d="M49 34C48.7615 33.9997 48.531 33.9143 48.35 33.759L41.63 28H25C23.6744 27.9984 22.4036 27.4711 21.4662 26.5338C20.5289 25.5964 20.0016 24.3256 20 23V7C20.0016 5.6744 20.5289 4.40356 21.4662 3.46622C22.4036 2.52888 23.6744 2.00159 25 2H53C54.3256 2.00159 55.5964 2.52888 56.5338 3.46622C57.4711 4.40356 57.9984 5.6744 58 7V23C57.9984 24.3256 57.4711 25.5964 56.5338 26.5338C55.5964 27.4711 54.3256 27.9984 53 28H50V33C50 33.2652 49.8946 33.5196 49.7071 33.7071C49.5196 33.8946 49.2652 34 49 34ZM25 4C24.2044 4 23.4413 4.31607 22.8787 4.87868C22.3161 5.44129 22 6.20435 22 7V23C22 23.7956 22.3161 24.5587 22.8787 25.1213C23.4413 25.6839 24.2044 26 25 26H42C42.2386 25.9997 42.4693 26.0853 42.65 26.241L48 30.826V27C48 26.7348 48.1054 26.4804 48.2929 26.2929C48.4804 26.1054 48.7348 26 49 26H53C53.7956 26 54.5587 25.6839 55.1213 25.1213C55.6839 24.5587 56 23.7956 56 23V7C56 6.20435 55.6839 5.44129 55.1213 4.87868C54.5587 4.31607 53.7956 4 53 4H25Z"
            fill="black" />
    <path
            d="M39 22C38.7714 21.9977 38.5507 21.9164 38.3752 21.7698C38.1998 21.6233 38.0804 21.4205 38.0375 21.1959C37.9946 20.9714 38.0307 20.7389 38.1397 20.538C38.2487 20.337 38.4239 20.18 38.6356 20.0936C38.8472 20.0071 39.0822 19.9966 39.3008 20.0637C39.5193 20.1309 39.7078 20.2716 39.8344 20.462C39.9609 20.6524 40.0177 20.8807 39.995 21.1082C39.9723 21.3357 39.8717 21.5483 39.71 21.71C39.5184 21.8927 39.2648 21.9963 39 22Z"
            fill="black" />
    <path
            d="M39 19C38.7348 19 38.4804 18.8946 38.2929 18.7071C38.1054 18.5196 38 18.2652 38 18V15.823C38.0027 15.3849 38.1529 14.9605 38.4262 14.6181C38.6996 14.2758 39.0803 14.0355 39.507 13.936C39.9974 13.808 40.4209 13.4986 40.6919 13.0704C40.9629 12.6421 41.0612 12.127 40.967 11.629C40.89 11.2333 40.6965 10.8696 40.4115 10.5845C40.1264 10.2995 39.7627 10.106 39.367 10.029C39.0778 9.97502 38.7803 9.98549 38.4957 10.0597C38.211 10.1338 37.9462 10.2699 37.7202 10.4581C37.4942 10.6463 37.3124 10.8821 37.1879 11.1486C37.0634 11.4151 36.9993 11.7058 37 12C37 12.2652 36.8946 12.5196 36.7071 12.7071C36.5196 12.8946 36.2652 13 36 13C35.7348 13 35.4804 12.8946 35.2929 12.7071C35.1054 12.5196 35 12.2652 35 12C35.0002 11.2524 35.2098 10.5198 35.6053 9.88529C36.0007 9.2508 36.566 8.73982 37.2371 8.41032C37.9082 8.08082 38.6582 7.94599 39.402 8.02112C40.1458 8.09625 40.8537 8.37834 41.4453 8.83538C42.037 9.29243 42.4887 9.90613 42.7492 10.6069C43.0098 11.3076 43.0687 12.0674 42.9194 12.7999C42.77 13.5325 42.4184 14.2085 41.9043 14.7513C41.3902 15.2941 40.7343 15.682 40.011 15.871L40 18C40 18.2652 39.8946 18.5196 39.7071 18.7071C39.5196 18.8946 39.2652 19 39 19Z"
            fill="black" />
    <path
            d="M15 62C14.7348 62 14.4804 61.8946 14.2929 61.7071C14.1054 61.5196 14 61.2652 14 61V56H11C9.6744 55.9984 8.40356 55.4711 7.46622 54.5338C6.52888 53.5964 6.00159 52.3256 6 51V35C6.00159 33.6744 6.52888 32.4036 7.46622 31.4662C8.40356 30.5289 9.6744 30.0016 11 30H39C40.3256 30.0016 41.5964 30.5289 42.5338 31.4662C43.4711 32.4036 43.9984 33.6744 44 35V51C43.9984 52.3256 43.4711 53.5964 42.5338 54.5338C41.5964 55.4711 40.3256 55.9984 39 56H22.37L15.651 61.759C15.4697 61.9145 15.2388 62 15 62ZM11 32C10.2044 32 9.44129 32.3161 8.87868 32.8787C8.31607 33.4413 8 34.2044 8 35V51C8 51.7956 8.31607 52.5587 8.87868 53.1213C9.44129 53.6839 10.2044 54 11 54H15C15.2652 54 15.5196 54.1054 15.7071 54.2929C15.8946 54.4804 16 54.7348 16 55V58.826L21.349 54.241C21.5303 54.0855 21.7612 54 22 54H39C39.7956 54 40.5587 53.6839 41.1213 53.1213C41.6839 52.5587 42 51.7956 42 51V35C42 34.2044 41.6839 33.4413 41.1213 32.8787C40.5587 32.3161 39.7956 32 39 32H11Z"
            fill="black" />
    <path
            d="M15 38H13C12.7348 38 12.4804 37.8946 12.2929 37.7071C12.1054 37.5196 12 37.2652 12 37C12 36.7348 12.1054 36.4804 12.2929 36.2929C12.4804 36.1054 12.7348 36 13 36H15C15.2652 36 15.5196 36.1054 15.7071 36.2929C15.8946 36.4804 16 36.7348 16 37C16 37.2652 15.8946 37.5196 15.7071 37.7071C15.5196 37.8946 15.2652 38 15 38Z"
            fill="black" />
    <path
            d="M37 38H19C18.7348 38 18.4804 37.8946 18.2929 37.7071C18.1054 37.5196 18 37.2652 18 37C18 36.7348 18.1054 36.4804 18.2929 36.2929C18.4804 36.1054 18.7348 36 19 36H37C37.2652 36 37.5196 36.1054 37.7071 36.2929C37.8946 36.4804 38 36.7348 38 37C38 37.2652 37.8946 37.5196 37.7071 37.7071C37.5196 37.8946 37.2652 38 37 38Z"
            fill="black" />
    <path
            d="M15 42H13C12.7348 42 12.4804 41.8946 12.2929 41.7071C12.1054 41.5196 12 41.2652 12 41C12 40.7348 12.1054 40.4804 12.2929 40.2929C12.4804 40.1054 12.7348 40 13 40H15C15.2652 40 15.5196 40.1054 15.7071 40.2929C15.8946 40.4804 16 40.7348 16 41C16 41.2652 15.8946 41.5196 15.7071 41.7071C15.5196 41.8946 15.2652 42 15 42Z"
            fill="black" />
    <path
            d="M37 42H19C18.7348 42 18.4804 41.8946 18.2929 41.7071C18.1054 41.5196 18 41.2652 18 41C18 40.7348 18.1054 40.4804 18.2929 40.2929C18.4804 40.1054 18.7348 40 19 40H37C37.2652 40 37.5196 40.1054 37.7071 40.2929C37.8946 40.4804 38 40.7348 38 41C38 41.2652 37.8946 41.5196 37.7071 41.7071C37.5196 41.8946 37.2652 42 37 42Z"
            fill="black" />
    <path
            d="M15 46H13C12.7348 46 12.4804 45.8946 12.2929 45.7071C12.1054 45.5196 12 45.2652 12 45C12 44.7348 12.1054 44.4804 12.2929 44.2929C12.4804 44.1054 12.7348 44 13 44H15C15.2652 44 15.5196 44.1054 15.7071 44.2929C15.8946 44.4804 16 44.7348 16 45C16 45.2652 15.8946 45.5196 15.7071 45.7071C15.5196 45.8946 15.2652 46 15 46Z"
            fill="black" />
    <path
            d="M37 46H19C18.7348 46 18.4804 45.8946 18.2929 45.7071C18.1054 45.5196 18 45.2652 18 45C18 44.7348 18.1054 44.4804 18.2929 44.2929C18.4804 44.1054 18.7348 44 19 44H37C37.2652 44 37.5196 44.1054 37.7071 44.2929C37.8946 44.4804 38 44.7348 38 45C38 45.2652 37.8946 45.5196 37.7071 45.7071C37.5196 45.8946 37.2652 46 37 46Z"
            fill="black" />
    <path
            d="M15 50H13C12.7348 50 12.4804 49.8946 12.2929 49.7071C12.1054 49.5196 12 49.2652 12 49C12 48.7348 12.1054 48.4804 12.2929 48.2929C12.4804 48.1054 12.7348 48 13 48H15C15.2652 48 15.5196 48.1054 15.7071 48.2929C15.8946 48.4804 16 48.7348 16 49C16 49.2652 15.8946 49.5196 15.7071 49.7071C15.5196 49.8946 15.2652 50 15 50Z"
            fill="black" />
    <path
            d="M37 50H19C18.7348 50 18.4804 49.8946 18.2929 49.7071C18.1054 49.5196 18 49.2652 18 49C18 48.7348 18.1054 48.4804 18.2929 48.2929C18.4804 48.1054 18.7348 48 19 48H37C37.2652 48 37.5196 48.1054 37.7071 48.2929C37.8946 48.4804 38 48.7348 38 49C38 49.2652 37.8946 49.5196 37.7071 49.7071C37.5196 49.8946 37.2652 50 37 50Z"
            fill="black" />
</svg>