<svg width="22" height="22" viewBox="0 0 22 22" fill="none" xmlns="http://www.w3.org/2000/svg">
<rect x="1" y="1" width="20" height="20" rx="10" stroke="#828CAE"/>
<path d="M12.2074 7H8.75564L8.46982 8.59829L11.5847 8.60267C13.1189 8.60267 13.5724 9.15973 13.5593 10.0828C13.552 10.5568 13.3478 11.3574 13.2589 11.617C13.0226 12.3082 12.537 13.0986 10.717 13.0957L7.68963 13.0942L7.40234 14.694H10.8454C12.0601 14.694 12.5764 14.5525 13.1232 14.3002C14.3365 13.7402 15.0584 12.543 15.3471 10.9811C15.7773 8.65516 15.2407 7 12.2074 7Z" fill="#828CAE"/>
<path d="M7.26726 10.045C6.36312 10.045 6.23333 10.6342 6.14875 10.99C6.03646 11.4567 6 11.6448 6 11.6448H9.53345C10.4376 11.6448 10.5674 11.0556 10.652 10.6998C10.7642 10.2332 10.8007 10.045 10.8007 10.045H7.26726Z" fill="#828CAE"/>
</svg>
