<?xml version="1.0" encoding="UTF-8" standalone="no"?>
<svg width="32" height="32" viewBox="0 0 64 64" fill="none" xmlns="http://www.w3.org/2000/svg">
    <path
            d="M57.0598 51.8101L52.1898 35.2201C52.1174 34.9725 51.9521 34.7625 51.7285 34.6339C51.5049 34.5053 51.2402 34.4681 50.9898 34.5301L44.9098 36.0701C44.1198 36.2901 44.0398 37.0701 44.3198 37.7501C39.5098 37.8201 35.4898 32.4901 30.5498 34.0101L27.3198 34.8801L19.5398 35.2101C19.8398 34.5601 19.7498 33.7701 18.9698 33.5501L12.9698 31.9001C12.722 31.8339 12.4581 31.8655 12.2329 31.9883C12.0077 32.1112 11.8383 32.3159 11.7598 32.5601L6.9998 47.6701C6.9586 47.7987 6.94389 47.9343 6.95655 48.0688C6.96921 48.2033 7.00898 48.3338 7.07346 48.4525C7.13794 48.5712 7.2258 48.6756 7.33173 48.7594C7.43766 48.8432 7.55947 48.9046 7.6898 48.9401L13.6898 50.5801C13.9191 50.6344 14.1602 50.606 14.3706 50.4999C14.581 50.3938 14.7472 50.2167 14.8398 50.0001C17.0698 53.0001 19.5298 56.0901 22.7698 58.1001L26.2098 60.3601C26.6747 60.6665 27.2035 60.8629 27.7557 60.9342C28.308 61.0054 28.8692 60.9497 29.3967 60.7713C29.9242 60.5929 30.4041 60.2965 30.7997 59.9047C31.1953 59.5128 31.4963 59.0358 31.6798 58.5101C32.0903 58.8273 32.5688 59.0452 33.0776 59.1467C33.5864 59.2481 34.1119 59.2303 34.6127 59.0947C35.1135 58.9591 35.5761 58.7093 35.9642 58.365C36.3523 58.0207 36.6555 57.5911 36.8498 57.1101C37.3156 57.3763 37.836 57.5328 38.3714 57.5678C38.9069 57.6027 39.4432 57.5152 39.9397 57.3118C40.4362 57.1083 40.8798 56.7944 41.2367 56.3939C41.5937 55.9933 41.8547 55.5166 41.9998 55.0001C42.4273 55.189 42.8886 55.2895 43.356 55.2958C43.8233 55.302 44.2871 55.2137 44.7195 55.0363C45.1519 54.8588 45.544 54.5959 45.8723 54.2631C46.2005 53.9304 46.4582 53.5348 46.6298 53.1001L48.6898 52.7601L49.0198 53.9101C49.0943 54.158 49.262 54.3674 49.4876 54.4942C49.7133 54.621 49.9793 54.6554 50.2298 54.5901L56.2998 53.0501C56.4331 53.0221 56.5592 52.9672 56.6706 52.8888C56.7819 52.8104 56.876 52.71 56.9471 52.5939C57.0183 52.4778 57.065 52.3484 57.0844 52.2136C57.1037 52.0788 57.0954 51.9415 57.0598 51.8101V51.8101ZM9.1698 47.2801L13.3298 34.0801L17.4498 35.2001L13.2798 48.4001L9.1698 47.2801ZM44.5398 52.8401C44.2727 53.11 43.9167 53.2739 43.5379 53.3015C43.1592 53.3291 42.7832 53.2185 42.4798 52.9901L38.5798 49.9001C38.3716 49.7356 38.1066 49.6606 37.8431 49.6916C37.5796 49.7225 37.3392 49.8569 37.1748 50.0651C37.0104 50.2733 36.9354 50.5383 36.9663 50.8017C36.9973 51.0652 37.1316 51.3056 37.3398 51.4701L39.6198 53.2701C41.1598 54.6201 38.9598 56.4501 37.6198 55.2701L33.8498 51.9401C33.6496 51.765 33.388 51.6767 33.1226 51.6945C32.8573 51.7123 32.6098 51.8348 32.4348 52.0351C32.2598 52.2353 32.1714 52.4969 32.1892 52.7622C32.2071 53.0276 32.3296 53.275 32.5298 53.4501L34.6798 55.3401C35.8898 56.4901 33.9598 57.9301 32.8798 56.9801L28.9498 53.6801C28.8197 53.5756 28.6656 53.5053 28.5014 53.4756C28.3372 53.4459 28.1682 53.4577 28.0098 53.5101C27.8871 53.547 27.7732 53.6086 27.6752 53.6912C27.5772 53.7737 27.4971 53.8754 27.4398 53.9901C27.3351 54.1896 27.3008 54.4186 27.3426 54.6401C27.3843 54.8615 27.4996 55.0624 27.6698 55.2101L29.4698 56.7301C30.7398 58.0901 28.6498 59.7301 27.3298 58.7301L23.8898 56.4701C20.5298 54.4701 17.8898 50.7901 15.6098 47.7401L18.9198 37.2401L25.4698 37.0001L22.3098 41.4001C19.9198 44.8901 24.9298 48.4001 27.7398 45.5401L29.1998 44.0801C29.9816 43.3321 31.0052 42.8887 32.0856 42.83C33.1659 42.7713 34.2316 43.1012 35.0898 43.7601L44.3798 51.1201C44.512 51.2162 44.6223 51.3393 44.7032 51.4814C44.784 51.6235 44.8337 51.7811 44.8489 51.9439C44.864 52.1066 44.8443 52.2708 44.791 52.4253C44.7377 52.5798 44.6521 52.7212 44.5398 52.8401ZM46.6898 51.0801C46.4969 50.4786 46.1276 49.949 45.6298 49.5601L36.3398 42.1901C35.0946 41.2313 33.5467 40.7514 31.9775 40.8377C30.4084 40.9239 28.9224 41.5706 27.7898 42.6601L26.3198 44.1301C25.2698 45.2801 22.9498 44.0301 23.9298 42.5601L28.0798 36.7501L31.0798 35.9401C33.7998 35.0501 36.6898 37.3601 39.0798 38.3901C40.9034 39.3088 42.9178 39.785 44.9598 39.7801L48.1998 50.7801L46.6898 51.0801ZM50.6898 52.4301L46.3898 37.7601L50.5198 36.7601L54.8298 51.4301L50.6898 52.4301Z"
            fill="black" />
    <path
            d="M11.7798 29C12.045 29 12.2994 28.8947 12.4869 28.7071C12.6744 28.5196 12.7798 28.2652 12.7798 28V15.83H22.6098C22.875 15.83 23.1294 15.7247 23.3169 15.5371C23.5044 15.3496 23.6098 15.0952 23.6098 14.83V5.00002H48.6098C49.3153 5.00002 49.9918 5.28027 50.4907 5.77912C50.9895 6.27797 51.2698 6.95455 51.2698 7.66002V31C51.2698 31.2652 51.3751 31.5196 51.5627 31.7071C51.7502 31.8947 52.0046 32 52.2698 32C52.535 32 52.7894 31.8947 52.9769 31.7071C53.1644 31.5196 53.2698 31.2652 53.2698 31V7.66002C53.2698 7.04383 53.1477 6.43376 52.9103 5.86509C52.673 5.29643 52.3253 4.78048 51.8873 4.3471C51.4492 3.91372 50.9296 3.57152 50.3584 3.34029C49.7873 3.10907 49.1759 2.99341 48.5598 3.00002H22.6098C22.4775 3.00057 22.3466 3.02737 22.2247 3.07887C22.1028 3.13037 21.9924 3.20554 21.8998 3.30002L11.1198 14.08C11.0131 14.1737 10.9276 14.2891 10.869 14.4184C10.8104 14.5477 10.78 14.688 10.7798 14.83V28C10.7798 28.2652 10.8851 28.5196 11.0727 28.7071C11.2602 28.8947 11.5146 29 11.7798 29ZM14.1998 13.83L21.6098 6.42002V13.83H14.1998Z"
            fill="black" />
</svg>