<svg width="16" height="22" viewBox="0 0 16 22" fill="none" xmlns="http://www.w3.org/2000/svg">
<path d="M10.3354 22C8.77823 22 7.64408 21.622 6.93155 20.8659C6.21971 20.1102 5.86345 19.2951 5.86345 18.4217C5.86345 18.1023 5.92539 17.8336 6.04962 17.6153C6.17083 17.3998 6.34681 17.2213 6.55921 17.0984C6.77447 16.9724 7.03936 16.9095 7.35421 16.9095C7.66906 16.9095 7.93361 16.9724 8.14921 17.0984C8.36448 17.2244 8.53422 17.3969 8.65845 17.6153C8.78268 17.8336 8.84463 18.1023 8.84463 18.4217C8.84463 18.808 8.75359 19.1229 8.57153 19.3666C8.38912 19.6103 8.17385 19.7696 7.92539 19.8456C8.141 20.1477 8.48049 20.3618 8.94422 20.4879C9.40794 20.6225 9.87166 20.6895 10.3354 20.6895C10.9812 20.6895 11.565 20.5132 12.0869 20.1605C12.6085 19.8075 12.9938 19.2868 13.2423 18.598C13.4908 17.9093 13.615 17.1279 13.615 16.2541C13.615 15.3051 13.4781 14.4941 13.205 13.8224C12.9398 13.142 12.5465 12.638 12.0246 12.3103C11.5188 11.9874 10.933 11.8171 10.3354 11.8191C9.93771 11.8191 9.44114 11.9871 8.84463 12.3231L7.75154 12.8775V12.3231L12.6708 5.67019H5.86345V12.5748C5.86345 13.1462 5.98768 13.6166 6.23614 13.9863C6.4846 14.356 6.8655 14.5407 7.37919 14.5407C7.77618 14.5407 8.15743 14.4063 8.5219 14.1373C8.88872 13.8659 9.20781 13.5338 9.46578 13.1549C9.49897 13.0788 9.54038 13.0243 9.59001 12.9907C9.63464 12.9507 9.692 12.9284 9.75154 12.9278C9.84257 12.9278 9.95003 12.974 10.0746 13.0667C10.1906 13.2007 10.2485 13.3562 10.2485 13.5326C10.2342 13.6513 10.2134 13.7692 10.1862 13.8856C9.90486 14.524 9.5154 15.011 9.01848 15.3471C8.53471 15.679 7.96324 15.8547 7.37919 15.8511C5.90486 15.8511 4.88604 15.5571 4.32307 14.9694C3.7601 14.381 3.47844 13.5829 3.47844 12.5751V5.67019H0V4.38473H3.47844V1.46181L2.68344 0.654706V0H4.99384L5.86311 0.453365V4.38473L14.8569 4.35973L15.7515 5.26681L10.2361 10.8613C10.57 10.7263 10.9216 10.6414 11.2796 10.6093C11.8758 10.6093 12.5465 10.8027 13.2919 11.189C14.0455 11.5671 14.6253 12.0881 15.0308 12.7511C15.4367 13.4065 15.6975 14.0366 15.8135 14.6413C15.9377 15.2464 16 15.7838 16 16.2541C16 17.3296 15.7762 18.329 15.3292 19.2534C14.8819 20.1772 14.2029 20.8659 13.2919 21.3196C12.3809 21.7733 11.3953 22 10.3354 22Z" fill="#7781A2"/>
</svg>
